<?xml version="1.0" encoding="UTF-8" standalone="no"?>
<!-- Created with Inkscape (http://www.inkscape.org/) -->

<svg
   xmlns:dc="http://purl.org/dc/elements/1.1/"
   xmlns:cc="http://creativecommons.org/ns#"
   xmlns:rdf="http://www.w3.org/1999/02/22-rdf-syntax-ns#"
   xmlns:svg="http://www.w3.org/2000/svg"
   xmlns="http://www.w3.org/2000/svg"
   xmlns:sodipodi="http://sodipodi.sourceforge.net/DTD/sodipodi-0.dtd"
   xmlns:inkscape="http://www.inkscape.org/namespaces/inkscape"
   id="svg2"
   version="1.1"
   inkscape:version="0.48.2 r9819"
   width="190.51562"
   height="67.234375"
   xml:space="preserve"
   sodipodi:docname="jamopp_logo.ai"><metadata
     id="metadata8"><rdf:RDF><cc:Work
         rdf:about=""><dc:format>image/svg+xml</dc:format><dc:type
           rdf:resource="http://purl.org/dc/dcmitype/StillImage" /><dc:title></dc:title></cc:Work></rdf:RDF></metadata><defs
     id="defs6"><clipPath
       clipPathUnits="userSpaceOnUse"
       id="clipPath16"><path
         d="m 0,841.89 595.276,0 L 595.276,0 0,0 0,841.89 z"
         id="path18"
         inkscape:connector-curvature="0" /></clipPath></defs><sodipodi:namedview
     pagecolor="#ffffff"
     bordercolor="#666666"
     borderopacity="1"
     objecttolerance="10"
     gridtolerance="10"
     guidetolerance="10"
     inkscape:pageopacity="0"
     inkscape:pageshadow="2"
     inkscape:window-width="1298"
     inkscape:window-height="861"
     id="namedview4"
     showgrid="false"
     fit-margin-top="0"
     fit-margin-left="0"
     fit-margin-right="0"
     fit-margin-bottom="0"
     inkscape:zoom="0.89702926"
     inkscape:cx="178.33259"
     inkscape:cy="-26.073247"
     inkscape:window-x="0"
     inkscape:window-y="0"
     inkscape:window-maximized="0"
     inkscape:current-layer="g10" /><g
     id="g10"
     inkscape:groupmode="layer"
     inkscape:label="jamopp_logo"
     transform="matrix(1.25,0,0,-1.25,-247.18514,944.14795)"><g
       transform="scale(1,-1)"
       style="font-size:32px;font-style:normal;font-variant:normal;font-weight:bold;font-stretch:normal;text-align:start;line-height:80.00000119%;letter-spacing:0px;word-spacing:0px;writing-mode:lr-tb;text-anchor:start;fill:#000000;fill-opacity:1;stroke:none;font-family:PilGi;-inkscape-font-specification:PilGi Bold"
       id="text3028"><path
         d="m 217.87311,-755.25586 1.3125,-0.0625 0.625,0.0625 -13.125,23.28125 -2,-0.0625 13.1875,-23.21875"
         style="line-height:80.00000119%;fill:#008000;font-family:PilGi;-inkscape-font-specification:PilGi Bold"
         id="path3847"
         inkscape:connector-curvature="0" /><path
         d="m 224.27936,-748.50586 2.875,-0.15625 -1.5625,-1.6875 c -0.60417,-0.54165 -1.08334,-0.98956 -1.4375,-1.34375 -0.35417,-0.35415 -0.53126,-0.59373 -0.53125,-0.71875 -1e-5,-0.31248 0.29166,-0.89581 0.875,-1.75 0.33333,-0.47914 0.60416,-0.71873 0.8125,-0.71875 0.29166,2e-5 0.82291,0.78127 1.59375,2.34375 l 1.25,3.0625 1.8125,-3.8125 c 0.20832,-0.49998 0.43749,-0.74998 0.6875,-0.75 0.37499,2e-5 0.91665,0.0938 1.625,0.28125 0.70832,0.18752 1.06248,0.41669 1.0625,0.6875 -2e-5,0.22919 -0.12502,0.47919 -0.375,0.75 -0.22918,0.27085 -0.77085,0.81252 -1.625,1.625 l -2.3125,1.96875 3.90625,0.59375 c 0.66665,0.0833 1.08332,0.2396 1.25,0.46875 0.16665,0.22918 0.24998,0.66668 0.25,1.3125 -2e-5,0.29168 -2e-5,0.52085 0,0.6875 -2e-5,0.56251 -0.15627,0.84376 -0.46875,0.84375 -0.25002,10e-6 -0.76043,-0.17707 -1.53125,-0.53125 -0.75001,-0.35415 -1.35418,-0.6979 -1.8125,-1.03125 l -1.9375,-1.28125 0.3125,2.15625 c -1e-5,0.14585 0.0729,0.6146 0.21875,1.40625 0.16666,0.77084 0.24999,1.18751 0.25,1.25 -1e-5,0.29168 -0.35418,0.60418 -1.0625,0.9375 -0.68751,0.31251 -1.20834,0.46876 -1.5625,0.46875 -0.27084,10e-6 -0.40626,-0.27082 -0.40625,-0.8125 -1e-5,-0.74999 0.15624,-1.73957 0.46875,-2.96875 l 0.65625,-2.4375 -2.03125,1.03125 c -0.68751,0.41668 -1.26042,0.75001 -1.71875,1 -0.43751,0.25001 -0.70834,0.37501 -0.8125,0.375 -0.20834,10e-6 -0.57292,-0.3229 -1.09375,-0.96875 -0.5,-0.66665 -0.75,-1.11457 -0.75,-1.34375 0,-0.29165 0.42708,-0.52082 1.28125,-0.6875 0.99999,-0.14582 1.61458,-0.22915 1.84375,-0.25"
         style="line-height:80.00000119%;fill:#008000;font-family:PilGi;-inkscape-font-specification:PilGi Bold"
         id="path3849"
         inkscape:connector-curvature="0" /><path
         d="m 252.09811,-739.16211 0,2.65625 c -2.64585,2.1875 -5.27085,3.28125 -7.875,3.28125 -2.08334,0 -3.70834,-0.6875 -4.875,-2.0625 -1.16667,-1.39583 -1.75,-3.33333 -1.75,-5.8125 0,-3.52082 0.91666,-6.66665 2.75,-9.4375 1.85416,-2.79165 4.09374,-4.18748 6.71875,-4.1875 1.31248,2e-5 2.36457,0.4271 3.15625,1.28125 0.81248,0.83335 1.21873,1.93752 1.21875,3.3125 -2e-5,1.81252 -0.4896,3.50001 -1.46875,5.0625 -1.06252,1.68751 -2.33335,2.53126 -3.8125,2.53125 -0.81251,10e-6 -1.46876,-0.26041 -1.96875,-0.78125 -0.50001,-0.52082 -0.75001,-1.1979 -0.75,-2.03125 -1e-5,-0.99999 0.16666,-1.77082 0.5,-2.3125 0.41666,-0.66665 1.06249,-0.99998 1.9375,-1 0.31249,2e-5 0.46874,0.0625 0.46875,0.1875 -0.20835,0.60418 -0.40626,1.1771 -0.59375,1.71875 -0.18751,0.54168 -0.28126,0.95835 -0.28125,1.25 -1e-5,0.75001 0.2604,1.12501 0.78125,1.125 0.60415,10e-6 1.22915,-0.62499 1.875,-1.875 0.64582,-1.24999 0.96873,-2.43748 0.96875,-3.5625 -2e-5,-1.85415 -0.7396,-2.78123 -2.21875,-2.78125 -1.75001,2e-5 -3.33334,1.25002 -4.75,3.75 -1.33334,2.35418 -2.00001,4.85418 -2,7.5 -1e-5,1.91667 0.40624,3.42709 1.21875,4.53125 0.81249,1.10417 1.92707,1.65625 3.34375,1.65625 1.22915,0 2.41665,-0.3125 3.5625,-0.9375 1.16665,-0.625 2.4479,-1.64583 3.84375,-3.0625"
         style="line-height:80.00000119%;fill:#252727;fill-opacity:1;font-family:PilGi;-inkscape-font-specification:PilGi Bold"
         id="path3853"
         inkscape:connector-curvature="0" /><path
         d="m 267.78561,-739.19336 0,2.65625 c -0.72919,0.5625 -1.59377,0.84375 -2.59375,0.84375 -0.58335,0 -1.1146,-0.11458 -1.59375,-0.34375 -0.45835,-0.22916 -0.94793,-0.61458 -1.46875,-1.15625 -1.50001,2.6875 -3.42709,4.03125 -5.78125,4.03125 -1.25001,0 -2.22917,-0.39583 -2.9375,-1.1875 -0.70834,-0.79166 -1.0625,-1.90625 -1.0625,-3.34375 0,-2.31249 0.67708,-4.22916 2.03125,-5.75 1.37499,-1.54165 3.17707,-2.31249 5.40625,-2.3125 l -0.125,1.78125 c -1.56251,0.22918 -2.70834,0.86459 -3.4375,1.90625 -0.72917,1.02084 -1.09376,2.36459 -1.09375,4.03125 -1e-5,1.89584 0.61458,2.84375 1.84375,2.84375 0.77082,0 1.51041,-0.41666 2.21875,-1.25 0.72915,-0.85416 1.1979,-1.85416 1.40625,-3 -0.12501,-0.43749 -0.20835,-0.76041 -0.25,-0.96875 -0.0208,-0.20833 -0.0313,-0.43749 -0.0312,-0.6875 -1e-5,-0.56249 0.0521,-1.17707 0.15625,-1.84375 0.10415,-0.66666 0.30207,-1.23957 0.59375,-1.71875 l 2.09375,0 c 0.10415,0.39584 0.16665,0.76043 0.1875,1.09375 0.0208,0.31251 0.0312,0.56251 0.0312,0.75 -2e-5,1.14584 -0.18752,2.32292 -0.5625,3.53125 0.99998,1.02084 1.83332,1.53125 2.5,1.53125 0.81248,0 1.6354,-0.47916 2.46875,-1.4375"
         style="line-height:80.00000119%;fill:#252727;fill-opacity:1;font-family:PilGi;-inkscape-font-specification:PilGi Bold"
         id="path3855"
         inkscape:connector-curvature="0" /><path
         d="m 270.97311,-733.31836 -2.40625,0 c -0.0833,-0.6875 -0.15625,-1.54166 -0.21875,-2.5625 -0.0417,-1.04166 -0.0625,-1.70833 -0.0625,-2 0,-0.87499 0.16666,-1.98958 0.5,-3.34375 0.33333,-1.37499 0.81249,-2.89582 1.4375,-4.5625 l 2.71875,0 -0.1875,0.4375 c -0.27084,0.72918 -0.48959,1.33334 -0.65625,1.8125 -0.14584,0.47918 -0.30209,1.05209 -0.46875,1.71875 1.41666,-1.41666 2.53124,-2.40624 3.34375,-2.96875 0.83332,-0.58332 1.55207,-0.87499 2.15625,-0.875 0.45832,10e-6 0.87499,0.22918 1.25,0.6875 0.45832,0.58334 0.68749,1.38543 0.6875,2.40625 l -0.0312,0.53125 c 1.22915,-0.97916 2.05207,-1.61457 2.46875,-1.90625 1.14581,-0.77082 2.04165,-1.15624 2.6875,-1.15625 0.56248,10e-6 1.05206,0.26043 1.46875,0.78125 0.41664,0.52084 0.62498,1.15626 0.625,1.90625 -2e-5,0.64584 -0.15627,1.41667 -0.46875,2.3125 -0.68752,2.00001 -1.03127,3.27084 -1.03125,3.8125 -2e-5,0.25 0.0417,0.46875 0.125,0.65625 0.10415,0.16667 0.21873,0.25 0.34375,0.25 0.37498,0 0.96873,-0.33333 1.78125,-1 0.81248,-0.6875 1.78123,-1.62499 2.90625,-2.8125 l 0,2.65625 c -1.18752,1.16667 -2.22919,2.02084 -3.125,2.5625 -0.87502,0.54167 -1.68752,0.8125 -2.4375,0.8125 -0.81252,0 -1.41669,-0.38542 -1.8125,-1.15625 -0.25002,-0.5 -0.37502,-1.03125 -0.375,-1.59375 -2e-5,-0.70833 0.15623,-1.53125 0.46875,-2.46875 0.70831,-2.12499 1.06248,-3.39582 1.0625,-3.8125 -2e-5,-0.37499 -0.14585,-0.56249 -0.4375,-0.5625 -0.27085,10e-6 -1.01043,0.50001 -2.21875,1.5 -0.66668,0.56251 -1.32293,1.12501 -1.96875,1.6875 l -0.46875,0.46875 c -0.0625,0.45834 -0.18751,1.09376 -0.375,1.90625 -0.16668,0.8125 -0.46876,2.10417 -0.90625,3.875 l -2.625,0 c 0.58332,-2.1875 0.95832,-3.61458 1.125,-4.28125 0.47915,-1.99999 0.71874,-3.44791 0.71875,-4.34375 -1e-5,-0.58332 -0.1771,-0.87499 -0.53125,-0.875 -0.33334,10e-6 -0.94793,0.37501 -1.84375,1.125 -0.66668,0.56251 -1.73959,1.54167 -3.21875,2.9375 l -0.0625,2.09375 0.0625,3.34375"
         style="line-height:80.00000119%;fill:#252727;fill-opacity:1;font-family:PilGi;-inkscape-font-specification:PilGi Bold"
         id="path3857"
         inkscape:connector-curvature="0" /><path
         d="m 293.09811,-733.31836 -2.40625,0 c -0.0833,-0.6875 -0.15625,-1.54166 -0.21875,-2.5625 -0.0417,-1.04166 -0.0625,-1.70833 -0.0625,-2 0,-0.87499 0.16666,-1.98958 0.5,-3.34375 0.33333,-1.37499 0.81249,-2.89582 1.4375,-4.5625 l 2.71875,0 -0.1875,0.4375 c -0.27084,0.72918 -0.48959,1.33334 -0.65625,1.8125 -0.14584,0.47918 -0.30209,1.05209 -0.46875,1.71875 1.41666,-1.41666 2.53124,-2.40624 3.34375,-2.96875 0.83332,-0.58332 1.55207,-0.87499 2.15625,-0.875 0.45832,10e-6 0.87499,0.22918 1.25,0.6875 0.45832,0.58334 0.68749,1.38543 0.6875,2.40625 l -0.0312,0.53125 c 1.22915,-0.97916 2.05207,-1.61457 2.46875,-1.90625 1.14581,-0.77082 2.04165,-1.15624 2.6875,-1.15625 0.56248,10e-6 1.05206,0.26043 1.46875,0.78125 0.41664,0.52084 0.62498,1.15626 0.625,1.90625 -2e-5,0.64584 -0.15627,1.41667 -0.46875,2.3125 -0.68752,2.00001 -1.03127,3.27084 -1.03125,3.8125 -2e-5,0.25 0.0417,0.46875 0.125,0.65625 0.10415,0.16667 0.21873,0.25 0.34375,0.25 0.37498,0 0.96873,-0.33333 1.78125,-1 0.81248,-0.6875 1.78123,-1.62499 2.90625,-2.8125 l 0,2.65625 c -1.18752,1.16667 -2.22919,2.02084 -3.125,2.5625 -0.87502,0.54167 -1.68752,0.8125 -2.4375,0.8125 -0.81252,0 -1.41669,-0.38542 -1.8125,-1.15625 -0.25002,-0.5 -0.37502,-1.03125 -0.375,-1.59375 -2e-5,-0.70833 0.15623,-1.53125 0.46875,-2.46875 0.70831,-2.12499 1.06248,-3.39582 1.0625,-3.8125 -2e-5,-0.37499 -0.14585,-0.56249 -0.4375,-0.5625 -0.27085,10e-6 -1.01043,0.50001 -2.21875,1.5 -0.66668,0.56251 -1.32293,1.12501 -1.96875,1.6875 l -0.46875,0.46875 c -0.0625,0.45834 -0.18751,1.09376 -0.375,1.90625 -0.16668,0.8125 -0.46876,2.10417 -0.90625,3.875 l -2.625,0 c 0.58332,-2.1875 0.95832,-3.61458 1.125,-4.28125 0.47915,-1.99999 0.71874,-3.44791 0.71875,-4.34375 -1e-5,-0.58332 -0.1771,-0.87499 -0.53125,-0.875 -0.33334,10e-6 -0.94793,0.37501 -1.84375,1.125 -0.66668,0.56251 -1.73959,1.54167 -3.21875,2.9375 l -0.0625,2.09375 0.0625,3.34375"
         style="line-height:80.00000119%;fill:#252727;fill-opacity:1;font-family:PilGi;-inkscape-font-specification:PilGi Bold"
         id="path3859"
         inkscape:connector-curvature="0" /><path
         d="m 325.19186,-739.19336 0,2.625 c -3.20835,2.3125 -6.32293,3.46875 -9.34375,3.46875 -1.10417,0 -1.94792,-0.44792 -2.53125,-1.34375 -0.5625,-0.91666 -0.84375,-1.94791 -0.84375,-3.09375 0,-2.27083 0.67708,-4.28124 2.03125,-6.03125 1.35416,-1.77082 2.91666,-2.65624 4.6875,-2.65625 1.66665,10e-6 2.49999,0.79168 2.5,2.375 -1e-5,1.41668 -0.72918,2.65626 -2.1875,3.71875 -0.77084,0.56251 -2.02084,1.19792 -3.75,1.90625 l -0.65625,0.28125 0,0.125 c -1e-5,0.70834 0.11458,1.28125 0.34375,1.71875 0.33333,0.64584 0.86458,0.96875 1.59375,0.96875 1.24999,0 2.51041,-0.3125 3.78125,-0.9375 1.27082,-0.64583 2.72915,-1.6875 4.375,-3.125 m -9.78125,-0.8125 c 1.29166,-0.47916 2.32291,-1.03124 3.09375,-1.65625 0.77082,-0.64582 1.15624,-1.28124 1.15625,-1.90625 -1e-5,-0.45832 -0.23959,-0.68749 -0.71875,-0.6875 -0.68751,10e-6 -1.38543,0.42709 -2.09375,1.28125 -0.70834,0.83334 -1.18751,1.82293 -1.4375,2.96875"
         style="line-height:80.00000119%;fill:#252727;fill-opacity:1;font-family:PilGi;-inkscape-font-specification:PilGi Bold"
         id="path3861"
         inkscape:connector-curvature="0" /><path
         d="m 327.59811,-745.75586 2.65625,0 c -0.29167,0.77085 -0.54167,1.45834 -0.75,2.0625 -0.1875,0.60418 -0.375,1.26043 -0.5625,1.96875 1.58333,-1.49999 2.82291,-2.54166 3.71875,-3.125 0.91666,-0.60415 1.71874,-0.90624 2.40625,-0.90625 0.54166,10e-6 0.99999,0.27085 1.375,0.8125 0.37499,0.54168 0.56249,1.21876 0.5625,2.03125 -1e-5,0.62501 -0.35417,2.00001 -1.0625,4.125 -0.33334,1.00001 -0.50001,1.83334 -0.5,2.5 -1e-5,0.60417 0.16666,0.90625 0.5,0.90625 0.27083,0 0.85416,-0.3125 1.75,-0.9375 1.12499,-0.79166 2.17707,-1.74999 3.15625,-2.875 l 0,2.65625 -0.65625,0.5625 c -1.20834,1.04167 -2.19793,1.77083 -2.96875,2.1875 -0.75001,0.41667 -1.47917,0.625 -2.1875,0.625 -0.66667,0 -1.19792,-0.26042 -1.59375,-0.78125 -0.375,-0.54166 -0.5625,-1.26041 -0.5625,-2.15625 0,-0.64583 0.15625,-1.4375 0.46875,-2.375 0.6875,-2.08333 1.03124,-3.36457 1.03125,-3.84375 -1e-5,-0.62499 -0.15626,-0.93749 -0.46875,-0.9375 -0.52084,10e-6 -2.25,1.39584 -5.1875,4.1875 l -0.34375,0.3125 c -0.0208,0.33334 -0.0417,0.66667 -0.0625,1 -0.0208,0.3125 -0.0312,0.52084 -0.0312,0.625 0,0.27084 0,0.48959 0,0.65625 l 0.0625,2.46875 0.0312,0.71875 -2.5,0 c -0.0833,-0.64583 -0.125,-1.23958 -0.125,-1.78125 l -0.0625,-2.6875 c 0,-1.89583 0.63542,-4.56249 1.90625,-8"
         style="line-height:80.00000119%;fill:#252727;fill-opacity:1;font-family:PilGi;-inkscape-font-specification:PilGi Bold"
         id="path3863"
         inkscape:connector-curvature="0" /><path
         d="m 343.28561,-745.41211 2.3125,-6.96875 2.625,0 -2.21875,6.71875 2.90625,-0.0312 -0.375,1.875 -1.15625,-0.0312 -2.03125,0.0625 -0.15625,0.53125 c -0.29167,1.06251 -0.51042,2.01043 -0.65625,2.84375 -0.14583,0.81251 -0.21875,1.53126 -0.21875,2.15625 0,1.79167 0.3125,2.6875 0.9375,2.6875 0.33333,0 0.89583,-0.27083 1.6875,-0.8125 0.97916,-0.66666 2.05208,-1.60416 3.21875,-2.8125 l 0,2.65625 c -1.375,1.27084 -2.65625,2.1875 -3.84375,2.75 -0.83333,0.39583 -1.55208,0.59375 -2.15625,0.59375 -0.79167,0 -1.42708,-0.40625 -1.90625,-1.21875 -0.45833,-0.83333 -0.6875,-1.92708 -0.6875,-3.28125 0,-0.85416 0.0521,-1.57291 0.15625,-2.15625 0.10417,-0.58333 0.35417,-1.58332 0.75,-3 l 0.25,-0.9375 -0.96875,0.15625 0.125,-1.25 c 0.0208,-0.16665 0.16667,-0.28124 0.4375,-0.34375 0.29167,-0.0625 0.61459,-0.12499 0.96875,-0.1875"
         style="line-height:80.00000119%;fill:#252727;fill-opacity:1;font-family:PilGi;-inkscape-font-specification:PilGi Bold"
         id="path3865"
         inkscape:connector-curvature="0" /><path
         d="m 215.09186,-723.90586 c -1.04169,3.62501 -1.97919,6.40626 -2.8125,8.34375 -1.12502,2.60417 -2.39585,4.53125 -3.8125,5.78125 -1.62501,1.4375 -3.58334,2.15625 -5.875,2.15625 -1.41667,0 -2.54167,-0.29167 -3.375,-0.875 -0.97917,-0.6875 -1.46875,-1.42708 -1.46875,-2.21875 0,-0.29166 0.29166,-0.625 0.875,-1 0.58333,-0.39583 0.96874,-0.59374 1.15625,-0.59375 0.0625,10e-6 0.35416,0.46876 0.875,1.40625 0.52083,0.9375 1.32291,1.40625 2.40625,1.40625 1.12499,0 2.16666,-0.34375 3.125,-1.03125 0.97915,-0.70833 1.8229,-1.71874 2.53125,-3.03125 0.35415,-0.64583 0.91665,-2.04166 1.6875,-4.1875 0.77082,-2.16665 1.4479,-4.15623 2.03125,-5.96875 0.60415,-1.83331 0.90623,-2.83331 0.90625,-3 -2e-5,-0.20831 -0.22919,-0.31248 -0.6875,-0.3125 -0.52085,2e-5 -1.12502,0.0417 -1.8125,0.125 -0.68752,0.0625 -1.32293,0.14585 -1.90625,0.25 -1.31251,0.22919 -2.32293,0.57294 -3.03125,1.03125 -0.70834,0.45835 -1.55209,1.32293 -2.53125,2.59375 -0.81251,1.06252 -1.36459,1.59376 -1.65625,1.59375 -0.12501,10e-6 -0.30209,-0.0729 -0.53125,-0.21875 -0.20834,-0.16665 -0.31251,-0.31248 -0.3125,-0.4375 -1e-5,-0.0625 0.14583,-0.36457 0.4375,-0.90625 0.39583,-0.70832 0.79166,-1.42707 1.1875,-2.15625 l 1.28125,-2.71875 c 0.10416,-0.0833 0.39582,-0.12498 0.875,-0.125 0.12499,2e-5 0.22916,2e-5 0.3125,0 0.45832,2e-5 0.9479,-0.0417 1.46875,-0.125 0.54165,-0.0833 0.97915,-0.15623 1.3125,-0.21875 1.41665,-0.27081 2.68748,-0.46873 3.8125,-0.59375 1.12498,-0.14581 2.14581,-0.21873 3.0625,-0.21875 0.66665,2e-5 1.08331,0.0417 1.25,0.125 0.18748,0.0834 0.28123,0.29169 0.28125,0.625 -2e-5,0.31252 -0.0834,0.82294 -0.25,1.53125 -0.16669,0.70835 -0.43752,1.69794 -0.8125,2.96875"
         style="line-height:80.00000119%;fill:#ff8000;fill-opacity:1;font-family:PilGi;-inkscape-font-specification:PilGi Bold"
         id="path3867"
         inkscape:connector-curvature="0" /><path
         d="m 228.96686,-713.59336 0,2.625 c -3.20835,2.3125 -6.32293,3.46875 -9.34375,3.46875 -1.10417,0 -1.94792,-0.44792 -2.53125,-1.34375 -0.5625,-0.91666 -0.84375,-1.94791 -0.84375,-3.09375 0,-2.27083 0.67708,-4.28124 2.03125,-6.03125 1.35416,-1.77082 2.91666,-2.65624 4.6875,-2.65625 1.66666,10e-6 2.49999,0.79168 2.5,2.375 -1e-5,1.41668 -0.72918,2.65626 -2.1875,3.71875 -0.77084,0.56251 -2.02084,1.19792 -3.75,1.90625 l -0.65625,0.28125 0,0.125 c -1e-5,0.70834 0.11458,1.28125 0.34375,1.71875 0.33333,0.64584 0.86458,0.96875 1.59375,0.96875 1.24999,0 2.51041,-0.3125 3.78125,-0.9375 1.27082,-0.64583 2.72915,-1.68749 4.375,-3.125 m -9.78125,-0.8125 c 1.29166,-0.47916 2.32291,-1.03124 3.09375,-1.65625 0.77082,-0.64582 1.15624,-1.28124 1.15625,-1.90625 -1e-5,-0.45832 -0.23959,-0.68749 -0.71875,-0.6875 -0.68751,10e-6 -1.38542,0.42709 -2.09375,1.28125 -0.70834,0.83334 -1.18751,1.82293 -1.4375,2.96875"
         style="line-height:80.00000119%;fill:#ff8000;fill-opacity:1;font-family:PilGi;-inkscape-font-specification:PilGi Bold"
         id="path3869"
         inkscape:connector-curvature="0" /><path
         d="m 232.12311,-707.71836 -2.40625,0 c -0.0833,-0.6875 -0.15625,-1.54166 -0.21875,-2.5625 -0.0417,-1.04166 -0.0625,-1.70833 -0.0625,-2 0,-0.87499 0.16666,-1.98958 0.5,-3.34375 0.33333,-1.37499 0.8125,-2.89582 1.4375,-4.5625 l 2.71875,0 -0.1875,0.4375 c -0.27084,0.72918 -0.48959,1.33334 -0.65625,1.8125 -0.14584,0.47918 -0.30209,1.05209 -0.46875,1.71875 1.41666,-1.41666 2.53124,-2.40624 3.34375,-2.96875 0.83332,-0.58332 1.55207,-0.87499 2.15625,-0.875 0.45832,10e-6 0.87499,0.22918 1.25,0.6875 0.45832,0.58335 0.68749,1.38543 0.6875,2.40625 l -0.0312,0.53125 c 1.22915,-0.97916 2.05207,-1.61457 2.46875,-1.90625 1.14582,-0.77082 2.04165,-1.15624 2.6875,-1.15625 0.56248,10e-6 1.05206,0.26043 1.46875,0.78125 0.41665,0.52084 0.62498,1.15626 0.625,1.90625 -2e-5,0.64584 -0.15627,1.41668 -0.46875,2.3125 -0.68752,2.00001 -1.03127,3.27084 -1.03125,3.8125 -2e-5,0.25 0.0417,0.46875 0.125,0.65625 0.10415,0.16667 0.21873,0.25 0.34375,0.25 0.37498,0 0.96873,-0.33333 1.78125,-1 0.81248,-0.6875 1.78123,-1.62499 2.90625,-2.8125 l 0,2.65625 c -1.18752,1.16667 -2.22919,2.02084 -3.125,2.5625 -0.87502,0.54167 -1.68752,0.8125 -2.4375,0.8125 -0.81252,0 -1.41668,-0.38542 -1.8125,-1.15625 -0.25002,-0.5 -0.37502,-1.03125 -0.375,-1.59375 -2e-5,-0.70833 0.15623,-1.53124 0.46875,-2.46875 0.70832,-2.12499 1.06248,-3.39582 1.0625,-3.8125 -2e-5,-0.37499 -0.14585,-0.56249 -0.4375,-0.5625 -0.27085,10e-6 -1.01043,0.50001 -2.21875,1.5 -0.66668,0.56251 -1.32293,1.12501 -1.96875,1.6875 l -0.46875,0.46875 c -0.0625,0.45834 -0.18751,1.09376 -0.375,1.90625 -0.16668,0.8125 -0.46876,2.10417 -0.90625,3.875 l -2.625,0 c 0.58332,-2.1875 0.95832,-3.61458 1.125,-4.28125 0.47916,-1.99999 0.71874,-3.44791 0.71875,-4.34375 -1e-5,-0.58332 -0.17709,-0.87499 -0.53125,-0.875 -0.33334,10e-6 -0.94793,0.37501 -1.84375,1.125 -0.66667,0.56251 -1.73959,1.54167 -3.21875,2.9375 l -0.0625,2.09375 0.0625,3.34375"
         style="line-height:80.00000119%;fill:#ff8000;fill-opacity:1;font-family:PilGi;-inkscape-font-specification:PilGi Bold"
         id="path3871"
         inkscape:connector-curvature="0" /><path
         d="m 251.02936,-710.84336 0,-2.59375 c 2.54166,-2.72916 4.79166,-5.8854 6.75,-9.46875 l 2.1875,0 -1.65625,6.96875 0.375,-0.5 c 0.97916,-1.37499 1.83332,-2.34374 2.5625,-2.90625 0.74999,-0.58332 1.53124,-0.87499 2.34375,-0.875 0.81248,10e-6 1.46873,0.33335 1.96875,1 0.52082,0.64585 0.78123,1.50001 0.78125,2.5625 -2e-5,2.64584 -0.91668,5.01042 -2.75,7.09375 0.81248,0 1.6354,-0.30208 2.46875,-0.90625 0.37498,-0.27083 1.05207,-0.88541 2.03125,-1.84375 0.18748,-0.20833 0.40623,-0.46874 0.65625,-0.78125 0.0833,-0.10416 0.20831,-0.27083 0.375,-0.5 l 0,2.65625 c -1.39585,1.29167 -2.19793,2.01042 -2.40625,2.15625 -0.95835,0.6875 -1.93752,1.03125 -2.9375,1.03125 -0.47918,0 -1.09376,-0.125 -1.84375,-0.375 -0.54168,0.33333 -1.21876,0.5 -2.03125,0.5 -1.06251,0 -1.59376,-0.32292 -1.59375,-0.96875 -10e-6,-0.5 0.0937,-0.95833 0.28125,-1.375 0.20832,-0.4375 0.53124,-0.65625 0.96875,-0.65625 0.27082,0 0.58332,0.0521 0.9375,0.15625 0.10416,0.0208 0.43749,0.13542 1,0.34375 0.66665,-0.625 1.1979,-1.44791 1.59375,-2.46875 0.47915,-1.22916 0.71874,-2.45833 0.71875,-3.6875 -10e-6,-1.31249 -0.31251,-1.96874 -0.9375,-1.96875 -0.50001,10e-6 -1.09376,0.34376 -1.78125,1.03125 -0.68751,0.66668 -1.42709,1.61459 -2.21875,2.84375 -1.02084,1.64584 -1.87501,3.69792 -2.5625,6.15625 -0.66667,2.45833 -1.20834,4.41666 -1.625,5.875 -0.14584,0.54166 -0.54167,0.81249 -1.1875,0.8125 -1.08334,-1e-5 -1.625,-0.39584 -1.625,-1.1875 l 0,-0.28125 c 0,-0.22917 0.0625,-0.52084 0.1875,-0.875 0,-0.0208 0.17708,-0.46875 0.53125,-1.34375 0.85416,-2.0625 1.63541,-4.1875 2.34375,-6.375 0.70833,-2.20833 1.34374,-4.47916 1.90625,-6.8125 -1.06251,1.83334 -2.02084,3.30209 -2.875,4.40625 -0.83334,1.10417 -1.8125,2.15626 -2.9375,3.15625"
         style="line-height:80.00000119%;fill:#ff8000;fill-opacity:1;font-family:PilGi;-inkscape-font-specification:PilGi Bold"
         id="path3873"
         inkscape:connector-curvature="0" /><path
         d="m 280.34186,-713.59336 0,2.65625 c -1.60418,1.22917 -2.98959,2.10417 -4.15625,2.625 -1.16667,0.5 -2.31251,0.75 -3.4375,0.75 -1.125,0 -1.94792,-0.45833 -2.46875,-1.375 -0.4375,-0.75 -0.65625,-1.75 -0.65625,-3 0,-2.16666 0.54166,-4.96874 1.625,-8.40625 1.16666,-3.68748 2.41666,-6.2604 3.75,-7.71875 0.74999,-0.72914 1.49999,-1.09373 2.25,-1.09375 0.60416,2e-5 1.11457,0.27086 1.53125,0.8125 0.41665,0.52085 0.62499,1.1771 0.625,1.96875 -10e-6,1.18752 -0.34376,2.51043 -1.03125,3.96875 -0.58334,1.25001 -1.45834,2.6771 -2.625,4.28125 -0.83334,1.16668 -1.95834,2.59376 -3.375,4.28125 l -0.15625,1.90625 c -10e-6,1.5 0.48958,2.25 1.46875,2.25 0.83333,0 1.88541,-0.36458 3.15625,-1.09375 1.27082,-0.72916 2.43749,-1.66666 3.5,-2.8125 m -7.53125,-3.3125 c 1.16666,-1.64582 1.96874,-2.81249 2.40625,-3.5 0.74999,-1.16665 1.31249,-2.18748 1.6875,-3.0625 0.39582,-0.89582 0.59374,-1.71873 0.59375,-2.46875 -10e-6,-0.70831 -0.18751,-1.06248 -0.5625,-1.0625 -0.68751,2e-5 -1.54168,1.50002 -2.5625,4.5 -0.72917,2.16668 -1.25001,4.03126 -1.5625,5.59375"
         style="line-height:80.00000119%;fill:#ff8000;fill-opacity:1;font-family:PilGi;-inkscape-font-specification:PilGi Bold"
         id="path3875"
         inkscape:connector-curvature="0" /><path
         d="m 296.02936,-713.59336 0,2.65625 c -2.41668,2.22917 -4.31251,3.34375 -5.6875,3.34375 -0.64584,0 -1.08334,-0.23958 -1.3125,-0.71875 -0.20834,-0.5 -0.31251,-1.08333 -0.3125,-1.75 l 0,-0.53125 c -1.00001,1.10417 -1.83334,1.875 -2.5,2.3125 -0.64584,0.4375 -1.28126,0.65625 -1.90625,0.65625 -0.93751,0 -1.76042,-0.4375 -2.46875,-1.3125 -0.6875,-0.89583 -1.03125,-1.94791 -1.03125,-3.15625 0,-2.24999 0.70833,-4.19791 2.125,-5.84375 1.31249,-1.52082 2.73958,-2.28124 4.28125,-2.28125 0.62499,10e-6 1.18749,0.16668 1.6875,0.5 0.52082,0.31251 1.0104,0.81251 1.46875,1.5 l 0.53125,-1.96875 2.59375,0 -1.625,6.5625 c -0.14585,0.52084 -0.27085,1.08334 -0.375,1.6875 -0.10418,0.58334 -0.15626,0.98959 -0.15625,1.21875 -10e-6,0.39584 0.12499,0.59375 0.375,0.59375 0.33332,0 0.87499,-0.30208 1.625,-0.90625 0.77082,-0.625 1.66665,-1.47916 2.6875,-2.5625 m -6.8125,0.375 0.71875,-3.125 c -0.70834,-0.83332 -1.17709,-1.34374 -1.40625,-1.53125 -0.33334,-0.27082 -0.68751,-0.40624 -1.0625,-0.40625 -1.00001,10e-6 -1.90626,0.57293 -2.71875,1.71875 -0.79167,1.12501 -1.18751,2.39584 -1.1875,3.8125 -10e-6,0.89584 0.14583,1.625 0.4375,2.1875 0.29166,0.54167 0.67708,0.8125 1.15625,0.8125 0.62499,0 1.37499,-0.45833 2.25,-1.375 0.60416,-0.68749 1.20832,-1.38541 1.8125,-2.09375"
         style="line-height:80.00000119%;fill:#ff8000;fill-opacity:1;font-family:PilGi;-inkscape-font-specification:PilGi Bold"
         id="path3877"
         inkscape:connector-curvature="0" /><path
         d="m 298.43561,-719.81211 2.3125,-6.96875 2.625,0 -2.21875,6.71875 2.90625,-0.0312 -0.375,1.875 -1.15625,-0.0312 -2.03125,0.0625 -0.15625,0.53125 c -0.29167,1.06251 -0.51042,2.01043 -0.65625,2.84375 -0.14584,0.81251 -0.21876,1.53126 -0.21875,2.15625 -10e-6,1.79167 0.31249,2.6875 0.9375,2.6875 0.33333,0 0.89583,-0.27083 1.6875,-0.8125 0.97916,-0.66666 2.05207,-1.60416 3.21875,-2.8125 l 0,2.65625 c -1.37501,1.27084 -2.65626,2.1875 -3.84375,2.75 -0.83334,0.39583 -1.55209,0.59375 -2.15625,0.59375 -0.79167,0 -1.42709,-0.40625 -1.90625,-1.21875 -0.45834,-0.83333 -0.6875,-1.92708 -0.6875,-3.28125 0,-0.85416 0.0521,-1.57291 0.15625,-2.15625 0.10416,-0.58333 0.35416,-1.58332 0.75,-3 l 0.25,-0.9375 -0.96875,0.15625 0.125,-1.25 c 0.0208,-0.16665 0.16666,-0.28124 0.4375,-0.34375 0.29166,-0.0625 0.61458,-0.12499 0.96875,-0.1875"
         style="line-height:80.00000119%;fill:#ff8000;fill-opacity:1;font-family:PilGi;-inkscape-font-specification:PilGi Bold"
         id="path3879"
         inkscape:connector-curvature="0" /><path
         d="m 318.46686,-713.59336 0,2.625 c -3.20835,2.3125 -6.32293,3.46875 -9.34375,3.46875 -1.10417,0 -1.94792,-0.44792 -2.53125,-1.34375 -0.5625,-0.91666 -0.84375,-1.94791 -0.84375,-3.09375 0,-2.27083 0.67708,-4.28124 2.03125,-6.03125 1.35416,-1.77082 2.91666,-2.65624 4.6875,-2.65625 1.66666,10e-6 2.49999,0.79168 2.5,2.375 -10e-6,1.41668 -0.72918,2.65626 -2.1875,3.71875 -0.77084,0.56251 -2.02084,1.19792 -3.75,1.90625 l -0.65625,0.28125 0,0.125 c -10e-6,0.70834 0.11458,1.28125 0.34375,1.71875 0.33333,0.64584 0.86458,0.96875 1.59375,0.96875 1.24999,0 2.51041,-0.3125 3.78125,-0.9375 1.27082,-0.64583 2.72915,-1.68749 4.375,-3.125 m -9.78125,-0.8125 c 1.29166,-0.47916 2.32291,-1.03124 3.09375,-1.65625 0.77082,-0.64582 1.15624,-1.28124 1.15625,-1.90625 -10e-6,-0.45832 -0.23959,-0.68749 -0.71875,-0.6875 -0.68751,10e-6 -1.38542,0.42709 -2.09375,1.28125 -0.70834,0.83334 -1.18751,1.82293 -1.4375,2.96875"
         style="line-height:80.00000119%;fill:#ff8000;fill-opacity:1;font-family:PilGi;-inkscape-font-specification:PilGi Bold"
         id="path3881"
         inkscape:connector-curvature="0" /><path
         d="m 324.19186,-722.90586 2.875,-0.15625 -1.5625,-1.6875 c -0.60417,-0.54165 -1.08334,-0.98956 -1.4375,-1.34375 -0.35417,-0.35415 -0.53126,-0.59373 -0.53125,-0.71875 -1e-5,-0.31248 0.29166,-0.89581 0.875,-1.75 0.33333,-0.47914 0.60416,-0.71873 0.8125,-0.71875 0.29166,2e-5 0.82291,0.78127 1.59375,2.34375 l 1.25,3.0625 1.8125,-3.8125 c 0.20832,-0.49998 0.43749,-0.74998 0.6875,-0.75 0.37499,2e-5 0.91665,0.0938 1.625,0.28125 0.70832,0.18752 1.06248,0.41669 1.0625,0.6875 -2e-5,0.22919 -0.12502,0.47919 -0.375,0.75 -0.22918,0.27085 -0.77085,0.81252 -1.625,1.625 l -2.3125,1.96875 3.90625,0.59375 c 0.66665,0.0833 1.08332,0.2396 1.25,0.46875 0.16665,0.22918 0.24998,0.66668 0.25,1.3125 -2e-5,0.29168 -2e-5,0.52085 0,0.6875 -2e-5,0.56251 -0.15627,0.84376 -0.46875,0.84375 -0.25002,10e-6 -0.76043,-0.17707 -1.53125,-0.53125 -0.75001,-0.35415 -1.35418,-0.6979 -1.8125,-1.03125 l -1.9375,-1.28125 0.3125,2.15625 c -1e-5,0.14585 0.0729,0.6146 0.21875,1.40625 0.16666,0.77084 0.24999,1.18751 0.25,1.25 -1e-5,0.29168 -0.35418,0.60418 -1.0625,0.9375 -0.68751,0.31251 -1.20834,0.46876 -1.5625,0.46875 -0.27084,10e-6 -0.40626,-0.27082 -0.40625,-0.8125 -1e-5,-0.74999 0.15624,-1.73957 0.46875,-2.96875 l 0.65625,-2.4375 -2.03125,1.03125 c -0.68751,0.41668 -1.26042,0.75001 -1.71875,1 -0.43751,0.25001 -0.70834,0.37501 -0.8125,0.375 -0.20834,10e-6 -0.57292,-0.3229 -1.09375,-0.96875 -0.5,-0.66665 -0.75,-1.11457 -0.75,-1.34375 0,-0.29165 0.42708,-0.52082 1.28125,-0.6875 0.99999,-0.14582 1.61458,-0.22915 1.84375,-0.25"
         style="line-height:80.00000119%;fill:#008000;font-family:PilGi;-inkscape-font-specification:PilGi Bold"
         id="path3883"
         inkscape:connector-curvature="0" /><path
         d="m 345.58561,-729.65586 1.3125,-0.0625 0.625,0.0625 -13.125,23.28125 -2,-0.0625 13.1875,-23.21875"
         style="line-height:80.00000119%;fill:#008000;font-family:PilGi;-inkscape-font-specification:PilGi Bold"
         id="path3885"
         inkscape:connector-curvature="0" /></g><text
       transform="scale(1,-1)"
       sodipodi:linespacing="80.000001%"
       id="text3830"
       y="-903.58826"
       x="205.8455"
       style="font-size:32px;font-style:normal;font-variant:normal;font-weight:bold;font-stretch:normal;text-align:start;line-height:80.00000119%;letter-spacing:0px;word-spacing:0px;writing-mode:lr-tb;text-anchor:start;fill:#000000;fill-opacity:1;stroke:none;font-family:PilGi;-inkscape-font-specification:PilGi Bold"
       xml:space="preserve"><tspan
         style="font-size:32px;font-style:normal;font-variant:normal;font-weight:bold;font-stretch:normal;text-align:start;line-height:80.00000119%;writing-mode:lr-tb;text-anchor:start;font-family:PilGi;-inkscape-font-specification:PilGi Bold"
         y="-903.58826"
         x="205.8455"
         id="tspan3832"
         sodipodi:role="line"><tspan
           id="tspan3834"
           style="font-size:32px;font-style:normal;font-variant:normal;font-weight:bold;font-stretch:normal;text-align:start;line-height:80.00000119%;writing-mode:lr-tb;text-anchor:start;fill:#008000;font-family:PilGi;-inkscape-font-specification:PilGi Bold">/*<tspan
   id="tspan3836"
   style="font-size:9.60000038px;fill:#ffffff">_</tspan></tspan><tspan
           id="tspan3838"
           style="font-size:32px;font-style:normal;font-variant:normal;font-weight:bold;font-stretch:normal;text-align:start;line-height:80.00000119%;writing-mode:lr-tb;text-anchor:start;fill:#252727;fill-opacity:1;font-family:PilGi;-inkscape-font-specification:PilGi Bold">Comment </tspan></tspan><tspan
         style="font-size:32px;font-style:normal;font-variant:normal;font-weight:bold;font-stretch:normal;text-align:start;line-height:80.00000119%;writing-mode:lr-tb;text-anchor:start;font-family:PilGi;-inkscape-font-specification:PilGi Bold"
         id="tspan3840"
         y="-877.98828"
         x="205.8455"
         sodipodi:role="line"><tspan
           id="tspan3842"
           style="font-size:32px;font-style:normal;font-variant:normal;font-weight:bold;font-stretch:normal;text-align:start;line-height:80.00000119%;writing-mode:lr-tb;text-anchor:start;fill:#ff8000;fill-opacity:1;font-family:PilGi;-inkscape-font-specification:PilGi Bold">Template</tspan><tspan
           id="tspan3844"
           style="font-size:32px;font-style:normal;font-variant:normal;font-weight:bold;font-stretch:normal;text-align:start;line-height:80.00000119%;writing-mode:lr-tb;text-anchor:start;fill:#008000;font-family:PilGi;-inkscape-font-specification:PilGi Bold">*/</tspan></tspan></text>
</g></svg>